<svg width="128" height="128" viewBox="0 0 128 128" fill="none" xmlns="http://www.w3.org/2000/svg">
<path d="M0 28C0 12.536 12.536 0 28 0H100C115.464 0 128 12.536 128 28V100C128 115.464 115.464 128 100 128H28C12.536 128 0 115.464 0 100V28Z" fill="#2E3C27"/>
<path d="M79.0759 107C76.2892 107 74.1259 106.267 72.5859 104.8C71.0459 103.333 70.2759 101.28 70.2759 98.64V76.64C70.2759 74.0733 71.0092 72.075 72.4759 70.645C73.9792 69.215 76.0509 68.5 78.6909 68.5H95.7959C96.8959 68.5 97.7392 68.7567 98.3259 69.27C98.9125 69.7467 99.2059 70.4433 99.2059 71.36C99.2059 72.24 98.8942 72.9367 98.2709 73.45C97.6842 73.9267 96.8592 74.165 95.7959 74.165H79.9559C79.2225 74.165 78.6359 74.4033 78.1959 74.88C77.7925 75.3567 77.5909 76.0167 77.5909 76.86V84.505H91.6159C92.7159 84.505 93.5592 84.7617 94.1459 85.275C94.7325 85.7517 95.0259 86.4483 95.0259 87.365C95.0259 88.245 94.7142 88.9417 94.0909 89.455C93.5042 89.9317 92.6792 90.17 91.6159 90.17H77.5909V98.64C77.5909 99.4833 77.7925 100.143 78.1959 100.62C78.6359 101.097 79.2225 101.335 79.9559 101.335H97.0059C98.1059 101.335 98.9492 101.592 99.5359 102.105C100.123 102.582 100.416 103.278 100.416 104.195C100.416 105.075 100.104 105.772 99.4809 106.285C98.8942 106.762 98.0692 107 97.0059 107H79.0759Z" fill="#CCC7B3"/>
<path d="M36.9128 107C34.1261 107 31.9628 106.267 30.4228 104.8C28.8828 103.333 28.1128 101.28 28.1128 98.64V76.64C28.1128 74.0733 28.8461 72.075 30.3128 70.645C31.8161 69.215 33.8878 68.5 36.5278 68.5H44.2278C48.4445 68.5 52.0928 69.27 55.1728 70.81C58.2528 72.35 60.5995 74.5683 62.2128 77.465C63.8628 80.3617 64.6878 83.8083 64.6878 87.805C64.6878 91.8017 63.8628 95.2483 62.2128 98.145C60.5995 101.005 58.2528 103.205 55.1728 104.745C52.1295 106.248 48.4811 107 44.2278 107H36.9128Z" fill="#CCC7B3"/>
<path d="M71.5963 63.55C70.4963 63.55 69.6163 63.2567 68.9563 62.67C68.2963 62.0833 67.9663 61.2767 67.9663 60.25V32.64C67.9663 30.0733 68.6996 28.075 70.1663 26.645C71.6696 25.215 73.7413 24.5 76.3813 24.5H85.6763C91.2496 24.5 95.4846 25.655 98.3813 27.965C101.278 30.275 102.726 33.6667 102.726 38.14C102.726 42.6133 101.315 46.005 98.4913 48.315C95.668 50.625 91.5063 51.78 86.0063 51.78H75.2813V60.25C75.2813 61.24 74.933 62.0467 74.2363 62.67C73.5763 63.2567 72.6963 63.55 71.5963 63.55Z" fill="#CCC7B3"/>
<path d="M34.6032 63C31.8166 63 29.6532 62.2667 28.1132 60.8C26.5732 59.3333 25.8032 57.28 25.8032 54.64V32.64C25.8032 30.0733 26.5366 28.075 28.0032 26.645C29.5066 25.215 31.5782 24.5 34.2182 24.5H41.9182C46.1349 24.5 49.7832 25.27 52.8632 26.81C55.9432 28.35 58.2899 30.5683 59.9032 33.465C61.5532 36.3617 62.3782 39.8083 62.3782 43.805C62.3782 47.8017 61.5532 51.2483 59.9032 54.145C58.2899 57.005 55.9432 59.205 52.8632 60.745C49.8199 62.2483 46.1716 63 41.9182 63H34.6032Z" fill="#CCC7B3"/>
</svg>
